<?xml version="1.0" encoding="UTF-8" standalone="no"?>
<svg
   xmlns:dc="http://purl.org/dc/elements/1.1/"
   xmlns:cc="http://creativecommons.org/ns#"
   xmlns:rdf="http://www.w3.org/1999/02/22-rdf-syntax-ns#"
   xmlns:svg="http://www.w3.org/2000/svg"
   xmlns="http://www.w3.org/2000/svg"
   xmlns:sodipodi="http://sodipodi.sourceforge.net/DTD/sodipodi-0.dtd"
   xmlns:inkscape="http://www.inkscape.org/namespaces/inkscape"
   id="svg9"
   xml:space="preserve"
   enable-background="new 0 0 1024 1024"
   viewBox="0 0 660.69739 119.71966"
   y="0px"
   x="0px"
   version="1.1"
   sodipodi:docname="docudio.svg"
   width="660.69739"
   height="119.71966"
   inkscape:version="1.0.1 (c497b03c, 2020-09-10)"><sodipodi:namedview
     pagecolor="#ffffff"
     bordercolor="#666666"
     borderopacity="1"
     objecttolerance="10"
     gridtolerance="10"
     guidetolerance="10"
     inkscape:pageopacity="0"
     inkscape:pageshadow="2"
     inkscape:window-width="1920"
     inkscape:window-height="1035"
     id="namedview889"
     showgrid="false"
     fit-margin-top="0"
     fit-margin-left="0"
     fit-margin-right="0"
     fit-margin-bottom="0"
     inkscape:zoom="0.57519531"
     inkscape:cx="330.356"
     inkscape:cy="59.85881"
     inkscape:window-x="1440"
     inkscape:window-y="23"
     inkscape:window-maximized="1"
     inkscape:current-layer="svg9" /><metadata
     id="metadata15"><rdf:RDF><cc:Work
         rdf:about=""><dc:format>image/svg+xml</dc:format><dc:type
           rdf:resource="http://purl.org/dc/dcmitype/StillImage" /><dc:title></dc:title></cc:Work></rdf:RDF></metadata><defs
     id="defs13" /><g
     id="g7"
     transform="translate(-181.644,-324.14119)"><g
       transform="translate(0,0.03119)"
       id="logo-group"><path
         style="opacity:0.25;fill:#000000;stroke-width:0.37323"
         d="M 320.6,324.11 320.5863,324.116 C 320.44769,324.118 320.29798,324.124 320.25232,324.1277 320.20672,324.1317 320.06537,324.1494 319.93982,324.1668 319.81427,324.1842 319.61494,324.2217 319.49646,324.2508 319.37797,324.2796 319.17203,324.3401 319.03943,324.38557 318.90683,324.43097 318.66798,324.53235 318.50818,324.61017 318.34839,324.68817 318.11755,324.8181 317.9945,324.89924 317.87165,324.98034 317.64357,325.14444 317.48669,325.26252 317.33001,325.38059 317.08453,325.55377 316.94177,325.64924 316.7992,325.74474 316.55272,325.90144 316.39294,325.99689 316.23315,326.09209 315.96674,326.23924 315.80114,326.32307 315.63575,326.40687 315.36913,326.5304 315.20935,326.59846 315.04956,326.66676 314.77898,326.77174 314.60779,326.83088 314.43659,326.88998 314.17411,326.96959 314.02575,327.00861 313.87737,327.04781 313.64515,327.10211 313.50818,327.12971 313.37158,327.15751 313.15507,327.19601 313.02966,327.21371 312.90388,327.23151 312.69007,327.25621 312.5531,327.26841 312.41612,327.28061 312.08513,327.28971 311.81677,327.28991 311.54879,327.29013 311.22158,327.27991 311.09021,327.26841 310.9592,327.25641 310.74501,327.23291 310.61364,327.21571 310.48263,327.19831 310.22426,327.15471 310.04138,327.12001 309.85887,327.08511 309.52787,327.01116 309.30505,326.95595 309.08223,326.90075 308.79348,326.83976 308.66247,326.81923 308.49004,326.79223 308.30439,326.78233 307.98864,326.78213 307.66916,326.78194 307.49179,326.79243 307.32458,326.81923 307.19904,326.83933 306.98393,326.88283 306.84802,326.91693 306.7123,326.95093 306.51228,327.01143 306.40271,327.05169 306.29314,327.09199 306.08235,327.18435 305.93396,327.25677 305.78558,327.32917 305.5514,327.46234 305.41443,327.55364 305.27747,327.64474 305.0763,327.79416 304.96716,327.88568 304.858,327.97718 304.67818,328.14927 304.56677,328.26654 304.45533,328.38379 304.29106,328.57549 304.20349,328.69232 304.11589,328.80936 303.99834,328.98224 303.93982,329.07708 303.88132,329.17208 303.76897,329.35588 303.69177,329.48724 303.61437,329.61839 303.46853,329.85258 303.3656,330.00677 303.26288,330.16074 303.09669,330.39496 302.99646,330.5263 302.89623,330.65745 302.70707,330.88574 302.57653,331.03411 302.44602,331.18248 302.23815,331.40245 302.11364,331.52239 301.98913,331.64213 301.8021,331.81065 301.69958,331.89739 301.59686,331.98389 301.40253,332.13792 301.26599,332.23919 301.12944,332.34066 300.8911,332.50157 300.73669,332.59661 300.58209,332.69181 300.32026,332.8372 300.15466,332.92083 299.98927,333.00463 299.74086,333.12116 299.60388,333.17864 299.46692,333.23614 299.20529,333.33339 299.02185,333.39544 298.83861,333.45774 298.53978,333.54643 298.35779,333.59271 298.176,333.63901 297.90654,333.701 297.75818,333.72943 297.60981,333.75783 297.35151,333.80103 297.18591,333.82513 297.02052,333.84943 296.80229,333.88823 296.69958,333.91103 296.59686,333.93383 296.38676,333.99273 296.23279,334.04384 296.07881,334.09514 295.8203,334.20327 295.66052,334.28212 295.50073,334.36122 295.2766,334.48722 295.16247,334.56337 295.04834,334.63957 294.89081,334.75378 294.81091,334.81728 294.73101,334.88058 294.56807,335.02653 294.44958,335.1415 294.33109,335.25645 294.16765,335.42914 294.0863,335.52626 294.0049,335.62316 293.88676,335.7787 293.82263,335.87001 293.75853,335.96131 293.64751,336.13716 293.57653,336.26064 293.50553,336.38432 293.40625,336.57836 293.35583,336.69228 293.30523,336.8062 293.2257,337.00694 293.18005,337.13954 293.13415,337.27235 293.07829,337.45644 293.05505,337.54774 293.03165,337.63884 292.97635,337.93014 292.932,338.19618 292.8876,338.46242 292.81705,338.83295 292.77575,339.01845 292.73425,339.20396 292.65558,339.50574 292.59997,339.68837 292.54437,339.87098 292.45663,340.12734 292.40661,340.25868 292.35641,340.38983 292.28576,340.56751 292.24841,340.65321 292.21101,340.73871 292.11633,340.93486 292.03747,341.09071 291.95887,341.24676 291.83288,341.47529 291.75818,341.59853 291.68348,341.72179 291.56119,341.91135 291.48669,342.01845 291.41219,342.12532 291.27976,342.30257 291.19177,342.41298 291.10377,342.52338 290.9323,342.72334 290.81091,342.85634 290.6893,342.98936 290.48458,343.19234 290.35779,343.30751 290.231,343.42289 290.03003,343.59465 289.91052,343.69032 289.7912,343.78602 289.58913,343.93886 289.4613,344.03017 289.33326,344.12127 289.13942,344.25208 289.02966,344.32118 288.91989,344.39028 288.69576,344.52447 288.53161,344.61806 288.36747,344.71166 288.14405,344.84825 288.03552,344.92274 287.92719,344.99724 287.7677,345.11494 287.682,345.18446 287.5965,345.25376 287.43723,345.40016 287.32849,345.50868 287.21951,345.61841 287.0598,345.7946 286.97302,345.90321 286.88612,346.01145 286.74815,346.20321 286.66638,346.329 286.58468,346.4544 286.46366,346.67054 286.39685,346.80751 286.33025,346.94447 286.24242,347.14631 286.20153,347.25673 286.16043,347.36712 286.09906,347.55883 286.06482,347.68251 286.03082,347.8062 285.98852,347.99058 285.97112,348.09267 285.95372,348.19477 285.92932,348.39063 285.91642,348.52821 285.90312,348.67098 285.89732,348.90344 285.90472,349.06923 285.91172,349.22901 285.93222,349.44702 285.94962,349.55556 285.96702,349.66388 286.03212,349.96272 286.09415,350.21962 286.15595,350.47631 286.23,350.81348 286.25822,350.96767 286.28642,351.12185 286.33012,351.40249 286.35392,351.59071 286.37762,351.77893 286.40402,352.09596 286.41252,352.29579 286.42052,352.49542 286.42052,352.84487 286.41252,353.07314 286.40452,353.30141 286.38362,353.60778 286.36562,353.75282 286.34732,353.89808 286.30962,354.1413 286.28162,354.29384 286.25342,354.44636 286.20122,354.6833 286.16639,354.81923 286.13129,354.95471 286.05287,355.2178 285.99061,355.40517 285.92811,355.59215 285.81896,355.88324 285.74842,356.0497 285.67782,356.21616 285.54868,356.49167 285.46131,356.66298 285.37411,356.83467 285.23835,357.08239 285.16053,357.21376 285.08273,357.34491 284.92485,357.59139 284.81092,357.76259 284.697,357.93379 284.48001,358.23922 284.3285,358.44032 284.17681,358.6412 284.00963,358.87539 283.95545,358.95985 283.90145,359.04405 283.8084,359.20846 283.74842,359.32509 283.68862,359.4415 283.60083,359.63738 283.55311,359.76064 283.50561,359.8837 283.43505,360.10598 283.39686,360.25478 283.35866,360.40356 283.30996,360.63166 283.28944,360.76259 283.26264,360.93504 283.25234,361.12036 283.25234,361.43642 283.25234,361.75018 283.26294,361.93842 283.28944,362.11024 283.30974,362.24139 283.35024,362.44683 283.37924,362.56532 283.40804,362.6838 283.46834,362.8878 283.514,363.0204 283.5596,363.153 283.64961,363.37367 283.71518,363.51064 283.78078,363.6476 283.88942,363.84937 283.95541,363.9579 284.02161,364.06623 284.19511,364.3127 284.34018,364.50673 284.48523,364.70076 284.6813,364.97476 284.77572,365.1161 284.87012,365.25722 285.01161,365.48134 285.09213,365.61415 285.17243,365.74676 285.32156,366.01584 285.42221,366.20985 285.52264,366.40388 285.66099,366.69356 285.72885,366.85439 285.79675,367.01521 285.90039,367.2858 285.95932,367.45595 286.01802,367.62611 286.09804,367.88767 286.13705,368.03603 286.17625,368.1844 286.23055,368.41662 286.25815,368.5536 286.28595,368.69056 286.32255,368.90657 286.34015,369.03212 286.35795,369.15766 286.38255,369.37172 286.39485,369.50868 286.40705,369.64564 286.41805,369.9767 286.41825,370.24501 286.41825,370.51312 286.40745,370.84436 286.39485,370.98134 286.38215,371.1183 286.35295,371.36488 286.33035,371.52821 286.30775,371.69132 286.26195,371.95795 286.22879,372.12001 286.19579,372.28208 286.1275,372.58192 286.07644,372.78798 286.02514,372.99383 285.96613,373.27052 285.94559,373.40126 285.91799,373.57682 285.90999,373.75511 285.91039,374.08485 285.91101,374.44406 285.91939,374.58118 285.95529,374.78993 285.97979,374.93249 286.02359,375.14231 286.05299,375.25478 286.08229,375.36746 286.13949,375.54908 286.17994,375.65907 286.22044,375.76905 286.31259,375.97944 286.38502,376.12782 286.45742,376.27619 286.59058,376.51037 286.68189,376.64735 286.77299,376.78431 286.92241,376.98548 287.01392,377.09462 287.10542,377.20377 287.27557,377.38359 287.39283,377.49501 287.51007,377.60645 287.70179,377.77072 287.81861,377.85829 287.93565,377.94589 288.10855,378.06364 288.20338,378.12196 288.29848,378.18006 288.48434,378.29261 288.61549,378.37001 288.74685,378.44741 288.95806,378.57803 289.08424,378.66103 289.21041,378.74403 289.41023,378.88317 289.52955,378.97157 289.64887,379.05997 289.85349,379.22179 289.98463,379.33095 290.11599,379.43989 290.36951,379.67499 290.54713,379.85243 290.72477,380.02985 290.94017,380.25948 291.02564,380.3622 291.11114,380.46492 291.23626,380.62246 291.30494,380.71376 291.37364,380.80506 291.49653,380.97858 291.57642,381.09853 291.65652,381.21826 291.77077,381.39959 291.83033,381.50087 291.88993,381.60213 291.99752,381.80266 292.07057,381.94814 292.14337,382.09361 292.25124,382.3285 292.3108,382.46962 292.3701,382.61093 292.47333,382.89089 292.53932,383.09071 292.60532,383.29055 292.68875,383.57097 292.72486,383.71376 292.76076,383.85633 292.81096,384.08076 292.83814,384.21376 292.86534,384.34678 292.91244,384.61705 292.94166,384.81337 292.97096,385.00947 293.01416,385.25562 293.03736,385.36024 293.06036,385.46462 293.12106,385.67503 293.17213,385.829 293.22343,385.98297 293.3296,386.24149 293.40846,386.40126 293.48756,386.56105 293.61355,386.78518 293.68971,386.89931 293.76591,387.01345 293.88207,387.17098 293.94557,387.25087 294.00887,387.33077 294.15286,387.49371 294.26783,387.6122 294.38279,387.73069 294.55763,387.89414 294.65455,387.97548 294.75145,388.05688 294.90504,388.17502 294.99635,388.23915 295.08765,388.30325 295.26349,388.41428 295.38697,388.48524 295.51065,388.55624 295.70581,388.65511 295.82057,388.70595 295.93553,388.75705 296.14726,388.84036 296.29127,388.88954 296.43508,388.93874 296.63778,388.99849 296.74049,389.02235 296.84321,389.04645 297.09976,389.09355 297.3108,389.12782 297.52205,389.16202 297.8108,389.21402 297.95338,389.24306 298.09615,389.27236 298.33545,389.32886 298.48463,389.36806 298.63404,389.40726 298.86872,389.47536 299.00611,389.5204 299.14348,389.5654 299.38051,389.65184 299.53346,389.71181 299.68619,389.77181 299.98848,389.91063 300.20533,390.0204 300.42218,390.13018 300.71298,390.29159 300.85182,390.37978 300.99086,390.46818 301.21497,390.62463 301.34986,390.72548 301.48495,390.82654 301.67879,390.98041 301.7815,391.06923 301.88422,391.15803 302.08559,391.34927 302.22877,391.49306 302.37174,391.63687 302.58185,391.86584 302.69557,392.00282 302.80929,392.13978 302.97982,392.35855 303.07447,392.4872 303.16927,392.61586 303.32118,392.83388 303.41041,392.97353 303.49961,393.11319 303.64976,393.36261 303.74439,393.52821 303.83879,393.6936 303.96292,393.89954 304.01978,393.98524 304.07688,394.07074 304.19322,394.23023 304.27955,394.33876 304.36585,394.44708 304.52882,394.62577 304.64088,394.7372 304.75293,394.84863 304.93612,395.01229 305.04713,395.10048 305.15794,395.18868 305.33866,395.3199 305.44947,395.3915 305.56028,395.4631 305.74966,395.57246 305.86939,395.63368 305.98892,395.69508 306.18326,395.78405 306.30299,395.83095 306.42272,395.87765 306.63099,395.94645 306.76588,395.98524 306.90056,396.02384 307.10093,396.07004 307.20924,396.08876 307.31756,396.10726 307.51759,396.13276 307.65455,396.14536 307.79649,396.15866 308.03024,396.16456 308.19752,396.15706 308.35897,396.15006 308.59897,396.12486 308.73072,396.10236 308.8627,396.07976 309.10227,396.02776 309.26392,395.98713 309.42578,395.94643 309.66235,395.89123 309.78932,395.86408 309.91611,395.83668 310.13698,395.79548 310.27955,395.77228 310.42232,395.74898 310.66049,395.71408 310.80885,395.69608 310.95722,395.67788 311.24333,395.65578 311.44361,395.64728 311.64386,395.63828 311.98916,395.63828 312.21119,395.64728 312.43324,395.65628 312.74082,395.67918 312.89478,395.69808 313.04897,395.71678 313.31538,395.75838 313.48658,395.79178 313.65778,395.82538 313.91777,395.88588 314.06471,395.92654 314.21184,395.96704 314.46819,396.04875 314.63502,396.10623 314.80166,396.16393 315.03655,396.25265 315.1565,396.30349 315.27665,396.35459 315.5146,396.46359 315.6858,396.54763 315.857,396.63163 316.12758,396.77826 316.28736,396.87185 316.44714,396.96525 316.70993,397.12826 316.87135,397.23513 317.0328,397.34221 317.34047,397.56148 317.55299,397.72146 317.76569,397.88146 318.00573,398.05526 318.08814,398.10818 318.17054,398.16108 318.33284,398.25329 318.44947,398.31326 318.56589,398.37306 318.76371,398.46085 318.88697,398.50857 319.01003,398.55607 319.23231,398.62663 319.38111,398.66482 319.5299,398.70302 319.75799,398.75192 319.88892,398.77224 320.05826,398.79854 320.2498,398.80904 320.55299,398.80934 320.79682,398.80955 321.06118,398.79804 321.17408,398.78204 321.28261,398.76684 321.43794,398.74184 321.51783,398.72544 321.59773,398.70924 321.75131,398.66964 321.85963,398.63954 321.96816,398.60944 322.15986,398.54704 322.28541,398.49892 322.41096,398.45082 322.61029,398.36121 322.72877,398.30165 322.84726,398.24235 323.01882,398.14645 323.11158,398.08876 323.20438,398.03086 323.44424,397.86212 323.64283,397.71376 323.84142,397.56538 324.14839,397.35014 324.32642,397.23329 324.50447,397.11625 324.77545,396.94781 324.92799,396.86024 325.0803,396.77284 325.32374,396.64207 325.469,396.56923 325.61447,396.49643 325.85902,396.38377 326.01197,396.31923 326.16511,396.25473 326.45296,396.14756 326.6526,396.08095 326.85244,396.01415 327.11335,395.93526 327.23268,395.90517 327.3522,395.87487 327.55814,395.82817 327.68971,395.80165 327.82148,395.77485 328.03292,395.73725 328.15846,395.71965 328.28401,395.70185 328.49258,395.67745 328.6233,395.66495 328.75404,395.65245 329.08508,395.64365 329.35963,395.64345 329.63417,395.64325 329.96676,395.65245 330.09791,395.66495 330.22906,395.67745 330.41486,395.69625 330.51197,395.70795 330.60907,395.71955 330.79684,395.74825 330.92799,395.77045 331.05914,395.79265 331.25156,395.82955 331.35572,395.85245 331.45989,395.87525 331.71483,395.93595 331.92213,395.98722 332.12944,396.03852 332.40762,396.0962 332.54127,396.11612 332.71538,396.14202 332.90864,396.15192 333.22096,396.15132 333.56751,396.15057 333.70999,396.14132 333.91627,396.10642 334.05905,396.08212 334.26865,396.03812 334.38111,396.00872 334.49379,395.97942 334.67543,395.92222 334.78541,395.88177 334.89539,395.84127 335.10578,395.7489 335.25416,395.67669 335.40254,395.60449 335.62271,395.48231 335.74244,395.40325 335.86239,395.32395 336.05325,395.18331 336.16822,395.09075 336.28318,394.99845 336.47825,394.81736 336.59986,394.69036 336.72167,394.56336 336.89407,394.36356 336.98268,394.24505 337.07148,394.12656 337.18999,393.95123 337.2483,393.85638 337.3064,393.76138 337.41895,393.57738 337.49635,393.44622 337.57375,393.31487 337.70435,393.10365 337.78736,392.97747 337.87036,392.8513 338.00951,392.65148 338.09791,392.53216 338.18631,392.41284 338.34467,392.21238 338.44947,392.08685 338.55426,391.9613 338.74066,391.75393 338.86353,391.62591 338.98617,391.49787 339.19097,391.29937 339.31861,391.18646 339.44602,391.07357 339.64396,390.91025 339.75807,390.82122 339.87221,390.73222 340.07223,390.58674 340.20338,390.49896 340.33474,390.41116 340.53405,390.28565 340.64674,390.21966 340.75942,390.15346 341.00369,390.02682 341.18775,389.93841 341.37182,389.84981 341.62887,389.73576 341.76002,389.6845 341.89138,389.633 342.13389,389.54623 342.29908,389.4931 342.46426,389.44 342.70881,389.37067 342.84205,389.33685 342.97549,389.30325 343.2235,389.24725 343.39283,389.2138 343.56216,389.1802 343.80855,389.1384 343.93971,389.1201 344.07106,389.1014 344.27505,389.0674 344.39478,389.0439 344.51473,389.0205 344.7539,388.9552 344.92408,388.89937 345.09446,388.84337 345.35494,388.73824 345.50416,388.66499 345.65357,388.59179 345.84641,388.48714 345.93189,388.43257 346.01759,388.37797 346.17513,388.2672 346.28346,388.18648 346.39199,388.10598 346.58673,387.93701 346.71705,387.81148 346.84716,387.68593 347.02089,387.50409 347.10182,387.40718 347.18292,387.31028 347.30136,387.15669 347.36549,387.06538 347.42959,386.97408 347.54061,386.79824 347.61158,386.67476 347.68258,386.55108 347.78144,386.35592 347.83228,386.24116 347.88338,386.1262 347.9667,385.91448 348.01588,385.77046 348.06508,385.62666 348.12483,385.42395 348.14869,385.32124 348.17279,385.21852 348.21989,384.96197 348.25416,384.75093 348.28836,384.53968 348.34036,384.25092 348.36939,384.10835 348.39869,383.96558 348.45519,383.7274 348.49439,383.57906 348.53359,383.43068 348.60171,383.19578 348.64674,383.05757 348.69194,382.91937 348.77684,382.68304 348.83619,382.53218 348.89559,382.38131 349.02677,382.09328 349.12721,381.89156 349.22765,381.68965 349.3851,381.40442 349.47682,381.25874 349.56832,381.11286 349.71379,380.8988 349.79908,380.78218 349.88438,380.66535 350.0161,380.49458 350.09205,380.40327 350.16825,380.31197 350.32911,380.13196 350.44947,380.00288 350.56983,379.87401 350.78988,379.66027 350.93971,379.52827 351.08953,379.39629 351.35249,379.18345 351.52369,379.05562 351.69489,378.928 351.95142,378.74974 352.094,378.65718 352.23677,378.56478 352.48917,378.41155 352.65455,378.31734 352.82015,378.22294 353.02609,378.09881 353.11158,378.04195 353.19728,377.98485 353.35678,377.86676 353.4651,377.78023 353.57363,377.69393 353.75067,377.53545 353.85963,377.42671 353.96857,377.31797 354.13202,377.1346 354.22291,377.02046 354.31361,376.90632 354.44624,376.72306 354.51783,376.61226 354.58943,376.50144 354.6988,376.31207 354.76002,376.19234 354.82142,376.07281 354.91038,375.87651 354.95728,375.75679 355.00398,375.63705 355.07278,375.42879 355.11158,375.2939 355.15018,375.15922 355.19648,374.96079 355.2151,374.85249 355.2336,374.74416 355.259,374.54219 355.2717,374.40523 355.285,374.26349 355.2907,374.03154 355.2834,373.86616 355.2764,373.70638 355.2559,373.48619 355.2385,373.37788 355.2211,373.26956 355.156,372.97053 355.09397,372.71382 355.03217,372.45692 354.95813,372.12173 354.92991,371.96773 354.90171,371.81355 354.85841,371.53018 354.83421,371.33882 354.80991,371.1475 354.78231,370.82521 354.77371,370.62202 354.76471,370.41907 354.76471,370.07257 354.77371,369.85054 354.78171,369.6285 354.80451,369.32761 354.82251,369.18257 354.84061,369.03731 354.87851,368.79405 354.90651,368.64156 354.93471,368.48904 354.98511,368.25209 355.01979,368.11616 355.05469,367.98024 355.1381,367.70643 355.20534,367.50679 355.27234,367.30695 355.3725,367.04055 355.42604,366.91499 355.47934,366.78945 355.59005,366.54713 355.67409,366.37593 355.75839,366.20473 355.90514,365.93219 355.99831,365.77241 356.09171,365.61262 356.2609,365.34205 356.37526,365.17085 356.48939,364.99965 356.70895,364.69209 356.86354,364.48726 357.01793,364.28224 357.19123,364.03994 357.24831,363.9482 357.30521,363.8563 357.41109,363.65908 357.48269,363.5107 357.55429,363.36233 357.64422,363.14713 357.68386,363.03218 357.72326,362.91722 357.78006,362.7253 357.80886,362.6064 357.83786,362.48749 357.87836,362.28249 357.89866,362.15132 357.92546,361.97805 357.93576,361.79166 357.93576,361.46773 357.93576,361.1438 357.92546,360.95547 357.89866,360.78218 357.87836,360.65082 357.83786,360.44602 357.80886,360.3271 357.77996,360.20819 357.72326,360.01823 357.68386,359.90327 357.64426,359.78831 357.55428,359.57116 357.48269,359.4228 357.41109,359.27444 357.30517,359.0792 357.24831,358.98726 357.19121,358.89556 357.01774,358.65127 356.86354,358.44624 356.70936,358.24142 356.50658,357.95864 356.41237,357.81734 356.31797,357.67623 356.17452,357.4521 356.09401,357.31929 356.01371,357.18669 355.86653,356.91955 355.76589,356.72554 355.66545,356.53152 355.52711,356.24183 355.45925,356.08101 355.39135,355.92018 355.28772,355.64961 355.22878,355.47945 355.17008,355.30929 355.09005,355.04773 355.05104,354.89937 355.01184,354.751 354.95754,354.51682 354.92995,354.37984 354.90215,354.24288 354.86355,354.02881 354.84595,353.90327 354.82815,353.77772 354.80375,353.56763 354.79125,353.43648 354.77875,353.30533 354.76975,352.97406 354.76975,352.70015 354.76954,352.42622 354.77875,352.09498 354.79125,351.96382 354.80375,351.83267 354.82435,351.64492 354.83615,351.5478 354.84795,351.4507 354.87885,351.23888 354.90645,351.07515 354.93425,350.91142 355.01354,350.54597 355.08223,350.2646 355.15073,349.9832 355.22309,349.64993 355.24239,349.52437 355.26689,349.36396 355.27739,349.1643 355.27759,348.85054 355.27759,348.48925 355.26759,348.35548 355.23269,348.14546 355.20819,348.00269 355.16439,347.79309 355.13499,347.68062 355.10569,347.56794 355.04879,347.3863 355.00804,347.27632 354.96734,347.16633 354.8842,346.97414 354.82444,346.84859 354.76444,346.72304 354.66079,346.53073 354.59397,346.4228 354.52717,346.31489 354.40458,346.13581 354.32054,346.02437 354.23654,345.91273 354.06866,345.71736 353.94749,345.59077 353.82609,345.46418 353.63377,345.28651 353.52171,345.19624 353.40965,345.10614 353.23675,344.97791 353.13694,344.91109 353.03714,344.84429 352.81593,344.70704 352.64475,344.6064 352.47355,344.50575 352.22118,344.34984 352.08421,344.25874 351.94725,344.16744 351.74742,344.02634 351.63889,343.94624 351.53056,343.86594 351.33276,343.71143 351.20139,343.60249 351.07025,343.49333 350.81847,343.26017 350.64085,343.08296 350.46322,342.90575 350.2478,342.67595 350.16233,342.5732 350.07683,342.47048 349.94977,342.31099 349.88108,342.21968 349.81238,342.12838 349.69144,341.95661 349.61155,341.83687 349.53145,341.71693 349.4172,341.5358 349.35765,341.43452 349.29805,341.33325 349.19046,341.13078 349.11741,340.9853 349.04461,340.83984 348.93815,340.61125 348.88108,340.47554 348.82418,340.34004 348.72613,340.07808 348.66429,339.89546 348.60229,339.71285 348.51829,339.43346 348.47679,339.27241 348.43529,339.11159 348.37779,338.86703 348.34983,338.72945 348.32183,338.59208 348.27563,338.31834 348.24632,338.12202 348.21702,337.92592 348.17392,337.67977 348.15062,337.57515 348.12762,337.47077 348.06732,337.25841 348.01586,337.10445 347.96456,336.95027 347.86368,336.70397 347.79125,336.55562 347.71885,336.40724 347.58485,336.17306 347.49437,336.03609 347.40367,335.89913 347.25823,335.70326 347.17211,335.60054 347.08601,335.49782 346.92346,335.32268 346.81078,335.21187 346.6981,335.10085 346.50984,334.93557 346.39281,334.84468 346.27598,334.75378 346.09414,334.62685 345.98851,334.56148 345.88289,334.49588 345.69414,334.38948 345.56859,334.32515 345.44305,334.26085 345.25134,334.17483 345.14281,334.13374 345.03448,334.09264 344.87084,334.03384 344.77953,334.00484 344.68823,333.97584 344.55508,333.93714 344.48266,333.91894 344.41006,333.90064 344.13254,333.85034 343.86547,333.80566 343.5984,333.76106 343.23014,333.69029 343.04711,333.64941 342.86387,333.60851 342.58045,333.53515 342.4182,333.48534 342.25613,333.43574 342.02031,333.3587 341.89476,333.31347 341.76921,333.26827 341.57335,333.19015 341.45922,333.1416 341.34508,333.0928 341.1421,332.99789 341.00805,332.93066 340.87379,332.86346 340.65973,332.74663 340.53148,332.67089 340.40303,332.59519 340.20837,332.4737 340.09984,332.39941 339.99151,332.32491 339.82392,332.20088 339.7268,332.12597 339.6299,332.05087 339.42609,331.87957 339.27562,331.74511 339.12496,331.61043 338.91458,331.40491 338.80687,331.28808 338.69896,331.17146 338.55229,331.00638 338.4807,330.92089 338.4089,330.83519 338.25329,330.63454 338.135,330.47558 338.01672,330.31683 337.85144,330.08043 337.76781,329.94824 337.68421,329.81625 337.53801,329.5726 337.44359,329.40722 337.34899,329.24162 337.22506,329.03569 337.1682,328.95019 337.1111,328.86449 336.99301,328.70499 336.90648,328.59667 336.82018,328.48814 336.66171,328.31089 336.55297,328.20214 336.44423,328.09341 336.26503,327.933 336.15648,327.84667 336.04816,327.76017 335.89062,327.64419 335.80492,327.58691 335.71942,327.52981 335.56584,327.43561 335.46312,327.37792 335.3604,327.32022 335.18783,327.23383 335.08031,327.18652 334.97282,327.13922 334.77885,327.0647 334.65062,327.0205 334.52237,326.9763 334.3133,326.91592 334.18383,326.88769 334.05434,326.85929 333.86273,326.82479 333.76,326.80959 333.64877,326.79339 333.40205,326.78139 333.14867,326.78229 332.8511,326.78329 332.66112,326.79489 332.51586,326.81939 332.40173,326.83869 332.09698,326.90599 331.84008,326.96783 331.58339,327.02983 331.24816,327.10367 331.09398,327.13189 330.93979,327.16009 330.65916,327.20209 330.47094,327.22559 330.28272,327.24949 329.96152,327.27719 329.75609,327.28619 329.55065,327.29519 329.19946,327.29519 328.9768,327.28619 328.77152,327.27119 328.47001,327.24969 328.32445,327.23149 328.17889,327.21339 327.93646,327.17549 327.78344,327.14749 327.63041,327.11929 327.39827,327.06819 327.2639,327.03421 327.13328,327.00001 326.90538,326.93307 326.75609,326.88578 326.61053,326.83868 326.3766,326.7543 326.23851,326.69828 326.09668,326.64228 325.8727,326.54591 325.73461,326.48343 325.60024,326.42093 325.37644,326.30743 325.23461,326.23148 325.09278,326.15558 324.88369,326.03843 324.77172,325.96976 324.65602,325.90106 324.43824,325.75956 324.28148,325.65726 324.12813,325.55475 323.81344,325.33052 323.58226,325.15726 323.35109,324.98398 323.06051,324.78316 322.93578,324.71195 322.81127,324.64055 322.59885,324.53526 322.46312,324.47757 322.32741,324.42007 322.10633,324.34234 321.97289,324.30374 321.83967,324.26534 321.62977,324.21564 321.50609,324.19242 321.38262,324.16942 321.18492,324.13952 321.06664,324.12792 320.94856,324.11632 320.73846,324.10842 320.59984,324.11032 Z"
         id="icon_container" /><path
         stroke-miterlimit="2"
         d="M 444.12,425.22 C 443.44031,425.96219 442.788,426.8216 442.163,427.7981 L 444.7997,429.6965 445.70204,428.4192 C 445.99111,428.02077 446.30361,427.61452 446.63954,427.2004 Z M 569.6,425.22 C 568.92031,425.96219 568.268,426.8216 567.643,427.7981 L 570.2797,429.6965 571.18205,428.4192 C 571.47111,428.02077 571.78361,427.61452 572.11955,427.2004 Z M 557.284,426.07547 V 431.29027 C 556.70588,431.13402 556.116,431.0559 555.5145,431.0559 553.5536,431.0559 551.9442,431.6809 550.6864,432.9309 549.4364,434.1653 548.8114,435.7121 548.8114,437.5715 548.8114,439.3684 549.35046,440.8293 550.4286,441.9543 550.95203,442.50117 551.5848,442.93086 552.327,443.2434 553.06918,443.5559 553.9364,443.71215 554.9286,443.71215 555.92079,443.71215 556.913,443.4348 557.9052,442.88012 558.1552,443.21606 558.48332,443.4934 558.88958,443.71215 L 561.09268,441.76685 C 560.90518,441.63403 560.74893,441.49341 560.62393,441.34497 560.50675,441.19654 560.39737,440.96216 560.29581,440.64185 560.20201,440.32153 560.15518,439.64185 560.15518,438.60275 V 426.07575 Z M 263.494,427.65747 C 262.1346,427.65747 260.9393,427.71997 259.9081,427.84497 V 443.52497 C 261.0253,443.72809 262.2167,443.82965 263.4823,443.82966 266.1385,443.82966 268.2167,443.18513 269.7167,441.89606 271.3886,440.45856 272.2245,438.35306 272.2245,435.57966 272.2245,433.10306 271.4745,431.17726 269.9745,429.80226 269.2323,429.11476 268.3065,428.58746 267.1971,428.22026 266.0955,427.84526 264.8612,427.65776 263.494,427.65776 Z M 503.304,427.65747 C 501.6243,427.65747 500.2884,428.09497 499.2962,428.96997 498.31964,429.82935 497.8314,430.95437 497.8314,432.34497 497.8314,433.68877 498.19859,434.73557 498.933,435.48557 499.33926,435.89964 499.88223,436.24729 500.5619,436.52857 501.24159,436.80982 502.1166,437.00123 503.1869,437.10279 504.2572,437.20435 505.0189,437.40358 505.4721,437.70045 505.70647,437.84889 505.87444,438.02858 505.976,438.23951 506.07757,438.44264 506.12835,438.70435 506.12835,439.02467 506.12835,439.33717 506.04245,439.62232 505.87053,439.88014 505.36272,440.63795 504.32363,441.01684 502.75333,441.01684 500.54233,441.01684 498.95253,440.1809 497.98383,438.50904 L 497.93693,438.54424 497.80802,442.45834 C 498.13615,442.68491 498.51896,442.88412 498.95642,443.056 500.28452,443.57162 501.62832,443.82942 502.98762,443.82944 504.67512,443.82943 506.07352,443.431 507.18292,442.63414 508.47982,441.70445 509.12822,440.38024 509.12822,438.66154 509.12822,437.34904 508.72978,436.33344 507.93292,435.61464 507.51105,435.23183 506.97198,434.91542 506.31572,434.66542 505.65946,434.41542 504.78832,434.2201 503.70242,434.07949 502.61652,433.93105 501.83912,433.67714 501.37042,433.31777 500.99542,433.02089 500.80792,432.57558 500.80792,431.98187 500.80792,431.52874 501.02277,431.16155 501.45245,430.88027 501.65558,430.74745 501.89777,430.64589 502.17902,430.57558 502.46808,430.50528 502.81183,430.47011 503.21022,430.47011 503.61647,430.47011 504.03834,430.51311 504.47582,430.59902 505.86642,430.85683 506.85082,431.41933 507.42892,432.28652 L 507.51092,432.26312 507.73357,428.81782 C 506.46797,428.04438 504.99137,427.65762 503.30387,427.65762 Z M 181.644,427.95044 C 181.81587,428.08325 181.98384,428.25121 182.1479,428.45435 182.31978,428.65747 182.81197,429.44653 183.6245,430.82155 183.88231,431.25124 184.19871,431.83715 184.57371,432.57935 184.94871,433.31372 185.81201,435.16915 187.16351,438.14575 V 441.40355 C 187.16351,442.52075 187.11271,443.23165 187.01116,443.53635 H 190.52676 C 190.43306,443.08322 190.38613,442.46605 190.38613,441.68475 V 438.32145 C 190.59707,437.7902 190.85098,437.19255 191.14785,436.52845 L 193.79625,431.00895 C 193.97594,430.61833 194.15562,430.27067 194.33531,429.96595 194.91344,428.94255 195.40171,428.27065 195.80011,427.95035 H 191.93291 C 191.90951,428.00505 191.04619,429.86445 189.34311,433.52845 189.16342,433.9347 189.00717,434.30189 188.87436,434.63005 L 186.03846,428.64175 C 185.89002,428.33706 185.77283,428.10659 185.6869,427.95034 Z M 395.784,427.95044 V 431.29024 H 394.0145 C 394.0065,431.29024 394.0028,431.35664 394.0028,431.48946 V 433.29416 C 394.0028,433.52853 394.0068,433.75901 394.0145,433.98556 H 395.784 V 439.30586 C 395.784,440.85276 396.13947,441.98946 396.8504,442.71606 397.19416,443.06762 397.60822,443.32153 398.0926,443.47778 398.58479,443.63403 399.03791,443.71216 399.452,443.71216 399.87388,443.71216 400.22545,443.69266 400.5067,443.65356 401.5458,443.52856 402.2567,443.27465 402.6395,442.89185 L 402.6044,440.17305 H 402.5107 C 402.1357,440.69649 401.4443,440.95821 400.4365,440.95821 400.14744,440.95821 399.89353,440.92691 399.67478,440.86451 398.99509,440.69264 398.65528,439.99342 398.65528,438.76691 V 433.98561 H 401.87798 V 431.29031 H 398.65528 V 427.95051 Z M 428.784,427.95044 V 431.29024 H 427.0145 C 427.0065,431.29024 427.0028,431.35664 427.0028,431.48946 V 433.29416 C 427.0028,433.52853 427.0068,433.75901 427.0145,433.98556 H 428.784 V 439.30586 C 428.784,440.85276 429.13947,441.98946 429.8504,442.71606 430.19416,443.06762 430.60822,443.32153 431.0926,443.47778 431.58479,443.63403 432.03791,443.71216 432.452,443.71216 432.87388,443.71216 433.22545,443.69266 433.5067,443.65356 434.5458,443.52856 435.2567,443.27465 435.6395,442.89185 L 435.6044,440.17305 H 435.5107 C 435.1357,440.69649 434.4443,440.95821 433.4365,440.95821 433.14744,440.95821 432.89353,440.92691 432.67478,440.86451 431.99509,440.69264 431.65528,439.99342 431.65528,438.76691 V 433.98561 H 434.87798 V 431.29031 H 431.65528 V 427.95051 Z M 517.284,427.95044 V 431.29024 H 515.5145 C 515.5065,431.29024 515.5028,431.35664 515.5028,431.48946 V 433.29416 C 515.5028,433.52853 515.5068,433.75901 515.5145,433.98556 H 517.284 V 439.30586 C 517.284,440.85276 517.63947,441.98946 518.3504,442.71606 518.69415,443.06762 519.10821,443.32153 519.5926,443.47778 520.08479,443.63403 520.53791,443.71216 520.952,443.71216 521.37388,443.71216 521.72544,443.69266 522.0067,443.65356 523.0458,443.52856 523.7567,443.27465 524.1395,442.89185 L 524.1043,440.17305 H 524.0106 C 523.6356,440.69649 522.9442,440.95821 521.9364,440.95821 521.64734,440.95821 521.39343,440.92691 521.17468,440.86451 520.49499,440.69264 520.15518,439.99342 520.15518,438.76691 V 433.98561 H 523.37788 V 431.29031 H 520.15518 V 427.95051 Z M 263.314,430.51684 H 263.6304 C 264.51322,430.51684 265.2906,430.62231 265.9624,430.83324 268.0015,431.47387 269.021,433.19264 269.021,435.98944 269.021,437.69254 268.56006,438.98944 267.6382,439.88004 267.20852,440.30191 266.70071,440.61441 266.1148,440.81754 265.52886,441.01285 264.982,441.11051 264.4742,441.1105 263.96639,441.1105 263.4586,441.0636 262.9508,440.96988 V 430.52988 C 263.0758,430.52188 263.19689,430.51818 263.31409,430.51818 Z M 207.38,431.0559 C 205.4738,431.0559 203.923,431.68871 202.7277,432.9543 202.18082,433.54023 201.75895,434.2277 201.4621,435.0168 201.17304,435.79804 201.02851,436.6184 201.02851,437.4777 201.02851,439.2589 201.54023,440.716 202.56371,441.8488 203.68871,443.091 205.24341,443.7121 207.22781,443.7121 209.14971,443.7121 210.69261,443.07929 211.85671,441.8137 212.95831,440.6184 213.50911,439.1106 213.50911,437.2903 213.50911,435.47 212.97395,433.9895 211.90361,432.8489 210.78641,431.6536 209.27861,431.0559 207.38021,431.0559 Z M 243.755,431.0559 C 243.02844,431.0559 242.3331,431.4348 241.6691,432.1926 V 431.29025 H 238.798 V 443.53625 H 241.716 C 241.6847,443.33312 241.6691,442.89562 241.6691,442.22375 V 435.00495 C 241.90348,434.63776 242.18863,434.34479 242.52457,434.12604 242.86833,433.89948 243.20426,433.7862 243.53237,433.7862 244.39174,433.7862 244.95817,434.02839 245.23157,434.51276 L 245.27847,434.47756 245.48941,431.32526 C 245.06753,431.14557 244.48941,431.05573 243.75501,431.05573 Z M 285.333,431.0559 C 283.4268,431.0559 281.876,431.68871 280.6806,432.9543 280.13373,433.54023 279.71185,434.2277 279.415,435.0168 279.12593,435.79804 278.9814,436.6184 278.9814,437.4777 278.9814,439.2589 279.49312,440.716 280.5166,441.8488 281.6416,443.091 283.1963,443.7121 285.1807,443.7121 287.1026,443.7121 288.6456,443.07929 289.8096,441.8137 290.9112,440.6184 291.4619,439.1106 291.4619,437.2903 291.4619,435.47 290.92675,433.9895 289.8564,432.8489 288.7392,431.6536 287.2314,431.0559 285.333,431.0559 Z M 304.271,431.0559 C 302.2319,431.0559 300.603,431.69261 299.3843,432.9661 298.2359,434.177 297.6616,435.7239 297.6616,437.6067 297.6616,439.4583 298.24363,440.9426 299.4077,442.0598 300.5561,443.1614 302.0366,443.7122 303.8491,443.7122 305.7163,443.7122 307.0874,443.2747 307.9624,442.3997 L 307.69287,439.5403 307.61087,439.5052 C 307.3843,439.91926 306.95461,440.28254 306.32177,440.595 306.02489,440.74344 305.69287,440.86062 305.32567,440.94656 304.9663,441.03246 304.54052,441.07547 304.04837,441.07547 303.564,441.07547 303.10306,440.98177 302.66557,440.79422 301.39997,440.23172 300.76717,439.03642 300.76717,437.20832 300.76717,436.17712 301.04061,435.34892 301.58748,434.72392 301.86092,434.41922 302.18904,434.18095 302.57186,434.00907 302.95466,433.8372 303.48202,433.75126 304.15386,433.75126 304.82574,433.75126 305.49766,433.86845 306.16946,434.10282 306.58353,434.24345 306.97806,434.54032 307.35306,434.99345 L 307.43506,435.00515 307.90381,432.00515 C 306.92726,431.37233 305.71631,431.05593 304.27101,431.05593 Z M 339.861,431.0559 C 338.736,431.0559 337.6384,431.48559 336.568,432.345 V 431.2903 H 333.6032 V 443.5363 H 336.6618 C 336.5993,443.0363 336.5681,441.9074 336.5681,440.1496 V 435.298 C 337.2556,434.30582 338.115,433.8097 339.1462,433.8097 339.3962,433.8097 339.60714,433.8683 339.77901,433.98548 339.95089,434.10267 340.11104,434.35267 340.25948,434.73548 340.41573,435.1183 340.49385,435.94648 340.49385,437.21988 V 443.57148 C 340.91573,443.54798 341.35713,443.53638 341.81805,443.53638 H 343.51725 C 343.42355,442.31758 343.37663,440.70828 343.37663,438.70828 V 435.61448 C 343.37663,435.55198 343.37263,435.48945 343.36493,435.42698 343.73212,434.80979 344.06024,434.39578 344.3493,434.18478 344.52118,434.05195 344.70477,433.9582 344.90008,433.90353 345.0954,433.84103 345.31805,433.80983 345.56805,433.80983 345.82587,433.80983 346.04852,433.86453 346.23602,433.9739 346.79852,434.31764 347.07977,435.4036 347.07977,437.2317 V 443.5715 C 347.50164,443.548 347.85712,443.5364 348.14617,443.5364 H 349.02507 C 349.32195,443.5364 349.78288,443.5638 350.40787,443.6184 L 350.43127,443.5715 C 350.38437,443.509 350.32581,443.43869 350.25549,443.36056 350.19299,443.28246 350.14221,443.11057 350.10315,442.84494 350.06405,442.57932 350.04455,441.78634 350.04455,440.46604 V 435.80194 C 350.04455,434.34104 349.73596,433.19254 349.11877,432.35664 348.81409,431.94258 348.42737,431.62227 347.95857,431.3957 347.48982,431.16914 346.91947,431.05586 346.24767,431.05586 345.58362,431.05586 344.91957,431.22382 344.25547,431.55976 343.85704,431.75508 343.35704,432.16133 342.75547,432.77856 342.15391,431.63016 341.18907,431.05596 339.86097,431.05596 Z M 363.955,431.0559 C 361.9862,431.0559 360.3925,431.67699 359.1738,432.9192 358.60349,433.50514 358.1621,434.1887 357.8496,434.97 357.5371,435.75125 357.38085,436.5989 357.38085,437.513 357.38085,439.3255 358.0332,440.8138 359.33785,441.9778 360.63475,443.134 362.27535,443.7122 364.25975,443.7122 364.61912,443.7122 364.99412,443.6888 365.38475,443.6419 366.71285,443.48564 367.67385,443.2044 368.26755,442.79814 L 368.39646,440.97004 C 368.41996,440.62629 368.43946,440.29035 368.45506,439.96224 368.33787,440.0638 368.16209,440.17317 367.92772,440.29036 367.03709,440.73567 365.97072,440.95833 364.72852,440.95833 363.54102,440.95833 362.57622,440.72786 361.83402,440.26693 361.09184,439.79817 360.61922,439.14583 360.41602,438.30993 H 364.54102 C 366.93942,438.30993 368.52932,438.20056 369.31052,437.98181 369.40422,437.75525 369.45114,437.33337 369.45114,436.71621 369.45114,435.10681 368.95505,433.77091 367.96284,432.70841 366.95504,431.60681 365.61904,431.05611 363.95504,431.05611 Z M 382.869,431.0559 C 381.6971,431.0559 380.5956,431.48168 379.5643,432.3332 V 431.2902 H 376.7166 V 443.5362 H 379.658 C 379.5955,443.2237 379.5643,442.7237 379.5643,442.0362 V 435.3448 C 380.2596,434.2823 381.1229,433.751 382.1541,433.751 383.5447,433.751 384.24,434.8955 384.24,437.1846 V 443.5713 C 384.66187,443.5478 384.99781,443.5362 385.2478,443.5362 H 386.06811 C 386.35718,443.5362 386.8181,443.5636 387.45091,443.6182 L 387.47431,443.5713 C 387.42741,443.5088 387.36884,443.43849 387.29853,443.36036 387.23603,443.28226 387.18525,443.11037 387.14619,442.84474 387.10709,442.57912 387.08759,441.78614 387.08759,440.46584 V 435.80174 C 387.08759,434.37984 386.70478,433.23534 385.93919,432.36814 385.17356,431.49314 384.15009,431.05564 382.86889,431.05564 Z M 414.627,431.0559 C 412.9864,431.0559 411.4746,431.41917 410.0918,432.1457 L 410.44336,434.7355 410.47856,434.7589 C 410.80668,434.4464 411.34966,434.16906 412.10746,433.92687 412.45121,433.81746 412.80277,433.73153 413.16216,433.66906 413.52935,433.59876 413.90044,433.56359 414.27546,433.56359 414.65828,433.56359 415.01765,433.59879 415.35356,433.66906 416.36926,433.87999 416.90826,434.61047 416.97076,435.86046 416.87696,435.84486 416.77154,435.83706 416.65435,435.83706 416.53717,435.82906 416.4317,435.82146 416.33794,435.81366 L 415.86919,435.80196 C 413.80669,435.80196 412.17389,436.20821 410.97079,437.02076 409.86139,437.77076 409.30669,438.70826 409.30669,439.83326 409.30669,441.09106 409.75981,442.05206 410.66609,442.71606 411.11139,443.04418 411.65437,443.29418 412.29499,443.46606 412.93562,443.63012 413.70519,443.71216 414.60359,443.71216 415.50202,443.71216 416.50589,443.41137 417.61529,442.80981 417.88873,443.25513 418.24811,443.59496 418.69339,443.82931 L 420.81449,441.88401 C 420.17386,441.55589 419.85355,440.9387 419.85355,440.03241 V 435.79021 C 419.85355,435.05584 419.74027,434.39571 419.5137,433.80971 418.80277,431.97381 417.1739,431.05581 414.627,431.05581 Z M 458.49,431.0559 C 456.5838,431.0559 455.033,431.68871 453.8376,432.9543 453.29073,433.54023 452.86885,434.2277 452.572,435.0168 452.28293,435.79804 452.1384,436.6184 452.1384,437.4777 452.1384,439.2589 452.65012,440.716 453.6736,441.8488 454.7986,443.091 456.3533,443.7121 458.3377,443.7121 460.2596,443.7121 461.8026,443.07929 462.9666,441.8137 464.0682,440.6184 464.6189,439.1106 464.6189,437.2903 464.6189,435.47 464.08375,433.9895 463.0134,432.8489 461.8962,431.6536 460.3884,431.0559 458.49,431.0559 Z M 477.931,431.0559 C 476.7591,431.0559 475.6576,431.48168 474.6263,432.3332 V 431.2902 H 471.7786 V 443.5362 H 474.72 C 474.6575,443.2237 474.6263,442.7237 474.6263,442.0362 V 435.3448 C 475.3216,434.2823 476.1849,433.751 477.2161,433.751 478.6067,433.751 479.302,434.8955 479.302,437.1846 V 443.5713 C 479.72387,443.5478 480.05981,443.5362 480.3098,443.5362 H 481.13011 C 481.41918,443.5362 481.8801,443.5636 482.51291,443.6182 L 482.53631,443.5713 C 482.48941,443.5088 482.43084,443.43849 482.36053,443.36036 482.29803,443.28226 482.24725,443.11037 482.20819,442.84474 482.16909,442.57912 482.14959,441.78614 482.14959,440.46584 V 435.80174 C 482.14959,434.37984 481.76678,433.23534 481.00119,432.36814 480.23556,431.49314 479.21209,431.05564 477.93089,431.05564 Z M 583.971,431.0559 C 582.0648,431.0559 580.514,431.68871 579.3187,432.9543 578.77182,433.54023 578.34995,434.2277 578.0531,435.0168 577.76404,435.79804 577.61951,436.6184 577.61951,437.4777 577.61951,439.2589 578.13123,440.716 579.15471,441.8488 580.27971,443.091 581.83441,443.7121 583.81881,443.7121 585.74071,443.7121 587.28361,443.07929 588.44771,441.8137 589.54931,440.6184 590.10011,439.1106 590.10011,437.2903 590.10011,435.47 589.56496,433.9895 588.49461,432.8489 587.37741,431.6536 585.86961,431.0559 583.97121,431.0559 Z M 220.241,431.2434 C 220.2722,431.3059 220.3191,431.45434 220.38162,431.68871 220.45192,431.91528 220.48709,432.80981 220.48709,434.37231 V 439.02471 C 220.48709,440.47001 220.83084,441.60671 221.51829,442.43491 222.23704,443.28647 223.22919,443.71231 224.49489,443.71231 225.67459,443.71231 226.76439,443.29825 227.76439,442.47011 V 443.53651 H 230.76439 C 230.70189,443.22401 230.67069,442.72401 230.67069,442.03651 V 431.29051 H 227.76449 V 439.95071 C 227.20199,440.62258 226.45979,440.95851 225.53789,440.95851 225.22539,440.95851 224.93633,440.91941 224.67071,440.84132 223.79571,440.58351 223.35821,439.64992 223.35821,438.04052 V 431.25532 C 222.93633,431.27882 222.59649,431.29042 222.33871,431.29042 H 221.36605 C 220.97542,431.29042 220.60042,431.27482 220.24105,431.24352 Z M 314.741,431.2434 C 314.7723,431.3059 314.8192,431.45434 314.88162,431.68871 314.95192,431.91528 314.98709,432.80981 314.98709,434.37231 V 439.02471 C 314.98709,440.47001 315.33084,441.60671 316.01829,442.43491 316.73705,443.28647 317.72919,443.71231 318.99489,443.71231 320.17459,443.71231 321.26439,443.29825 322.26439,442.47011 V 443.53651 H 325.26439 C 325.20189,443.22401 325.17069,442.72401 325.17069,442.03651 V 431.29051 H 322.26449 V 439.95071 C 321.70199,440.62258 320.95979,440.95851 320.03789,440.95851 319.72539,440.95851 319.43633,440.91941 319.17071,440.84132 318.29571,440.58351 317.85821,439.64992 317.85821,438.04052 V 431.25532 C 317.43633,431.27882 317.09648,431.29042 316.83871,431.29042 H 315.86605 C 315.47543,431.29042 315.10043,431.27482 314.74105,431.24352 Z M 530.831,431.2434 C 530.8623,431.3059 530.9092,431.45434 530.97162,431.68871 531.04192,431.91528 531.07709,432.80981 531.07709,434.37231 V 439.02471 C 531.07709,440.47001 531.42084,441.60671 532.10829,442.43491 532.82705,443.28647 533.81929,443.71231 535.08489,443.71231 536.26459,443.71231 537.35439,443.29825 538.35439,442.47011 V 443.53651 H 541.35439 C 541.29189,443.22401 541.26069,442.72401 541.26069,442.03651 V 431.29051 H 538.35449 V 439.95071 C 537.79199,440.62258 537.04979,440.95851 536.12789,440.95851 535.81539,440.95851 535.52633,440.91941 535.26071,440.84132 534.38571,440.58351 533.94821,439.64992 533.94821,438.04052 V 431.25532 C 533.52633,431.27882 533.18649,431.29042 532.92871,431.29042 H 531.95605 C 531.56543,431.29042 531.19043,431.27482 530.83105,431.24352 Z M 442.296,431.2903 V 443.5363 H 445.2726 C 445.2413,443.33317 445.2257,442.89567 445.2257,442.2238 V 431.2898 Z M 567.776,431.2903 V 443.5363 H 570.7526 C 570.7213,443.33317 570.7057,442.89567 570.7057,442.2238 V 431.2898 Z M 363.576,433.5169 C 365.0838,433.51689 365.9979,434.35674 366.3182,436.0364 366.11507,436.0521 365.8846,436.0637 365.62679,436.0715 L 364.66585,436.1067 C 364.28304,436.1147 363.89241,436.1184 363.49395,436.1184 H 362.82598 C 362.56036,436.1184 362.28301,436.1144 361.99395,436.1067 H 361.12676 C 360.85332,436.0987 360.62285,436.0911 360.43535,436.0833 360.53692,435.7083 360.68145,435.36455 360.86895,435.0521 361.48613,434.0287 362.38845,433.5169 363.57595,433.5169 Z M 207.176,433.69268 C 208.2229,433.69268 209.0471,434.05205 209.6487,434.77078 210.2112,435.44266 210.49245,436.32548 210.49245,437.41918 210.49245,438.49728 210.21901,439.37228 209.67214,440.04418 209.10964,440.73949 208.34014,441.08718 207.36354,441.08718 206.30884,441.08718 205.45734,440.73171 204.80884,440.02078 204.50416,439.69266 204.26978,439.29813 204.10572,438.83718 203.94166,438.37624 203.85963,437.89968 203.85963,437.40748 203.85963,436.39968 204.13306,435.54418 204.67994,434.84108 205.2815,434.07546 206.11354,433.69268 207.17604,433.69268 Z M 285.129,433.69268 C 286.1759,433.69268 287.0001,434.05205 287.6016,434.77078 288.1641,435.44266 288.44535,436.32548 288.44535,437.41918 288.44535,438.49728 288.17191,439.37228 287.62504,440.04418 287.06254,440.73949 286.29304,441.08718 285.31644,441.08718 284.26174,441.08718 283.41024,440.73171 282.76174,440.02078 282.45706,439.69266 282.22268,439.29813 282.05861,438.83718 281.89455,438.37624 281.81252,437.89968 281.81252,437.40748 281.81252,436.39968 282.08596,435.54418 282.63283,434.84108 283.23439,434.07546 284.06643,433.69268 285.12893,433.69268 Z M 458.289,433.69268 C 459.3359,433.69268 460.1601,434.05205 460.7616,434.77078 461.3241,435.44266 461.60535,436.32548 461.60535,437.41918 461.60535,438.49728 461.33191,439.37228 460.78504,440.04418 460.22254,440.73949 459.45304,441.08718 458.47644,441.08718 457.42174,441.08718 456.57024,440.73171 455.92174,440.02078 455.61706,439.69266 455.38268,439.29813 455.21861,438.83718 455.05455,438.37624 454.97252,437.89968 454.97252,437.40748 454.97252,436.39968 455.24596,435.54418 455.79283,434.84108 456.39439,434.07546 457.22643,433.69268 458.28893,433.69268 Z M 583.769,433.69268 C 584.8159,433.69268 585.6401,434.05205 586.2417,434.77078 586.8042,435.44266 587.08545,436.32548 587.08545,437.41918 587.08545,438.49728 586.81202,439.37228 586.26514,440.04418 585.70264,440.73949 584.93314,441.08718 583.95654,441.08718 582.90184,441.08718 582.05034,440.73171 581.40184,440.02078 581.09716,439.69266 580.86279,439.29813 580.69872,438.83718 580.53466,438.37624 580.45263,437.89968 580.45263,437.40748 580.45263,436.39968 580.72606,435.54418 581.27294,434.84108 581.8745,434.07546 582.70654,433.69268 583.76904,433.69268 Z M 555.48,433.80986 C 556.12063,433.80986 556.7144,433.92315 557.2612,434.14971 V 440.64191 C 556.71433,440.89191 556.1128,441.01691 555.4565,441.01691 554.1987,441.01691 553.2338,440.66144 552.562,439.95051 551.937,439.28645 551.6245,438.39581 551.6245,437.27861 551.6245,436.25521 551.96825,435.42311 552.6557,434.78251 552.98383,434.47782 553.37446,434.23954 553.8276,434.06767 554.28854,433.89579 554.8393,433.80985 555.4799,433.80985 Z M 415.84,437.91146 H 416.30875 C 416.53532,437.91146 416.75407,437.93096 416.965,437.97006 V 440.41926 C 416.965,440.51296 416.969,440.60286 416.9767,440.68879 416.28139,441.0716 415.5314,441.26301 414.7267,441.26301 413.92983,441.26301 413.3283,441.14582 412.922,440.91145 412.71105,440.78645 412.55871,440.6302 412.46496,440.4427 412.37906,440.24738 412.33606,440.02473 412.33606,439.77473 412.33606,439.52473 412.40636,439.28644 412.547,439.05988 413.01574,438.29426 414.1134,437.91148 415.84,437.91148 Z"
         style="font-variant-ligatures:none;fill:#000000;stroke-width:0;stroke-miterlimit:2"
         id="path310148" /><path
         stroke-miterlimit="2"
         d="M 428.7,324.17 C 421.4242,324.17 414.835,325.7838 408.932,329.0098 403.0976,332.2359 398.498,336.6626 395.135,342.2908 391.7716,347.9193 390.0901,354.2348 390.0901,361.2358 390.0901,368.3057 391.7368,374.6888 395.0315,380.3858 398.3262,386.0829 402.8575,390.5798 408.6235,393.8738 414.3893,397.1685 420.8405,398.8152 427.9785,398.8152 433.2638,398.8152 438.5835,397.6141 443.9375,395.2117 449.3601,392.7407 454.0265,389.4453 457.9395,385.3269 L 446.9235,373.4869 C 444.3838,376.0952 441.5011,378.1546 438.2751,379.6646 435.049,381.1747 431.959,381.9302 429.0075,381.9302 425.3696,381.9302 422.0413,381.03711 419.0212,379.2525 416.0697,377.3992 413.7352,374.8943 412.0192,371.7369 410.3032,368.5108 409.445,364.9404 409.445,361.0279 409.445,357.1154 410.30322,353.5818 412.0192,350.4239 413.7352,347.1978 416.0696,344.691 419.0212,342.9063 422.0414,341.053 425.3696,340.127 429.0075,340.127 432.1649,340.127 435.3576,341.02009 438.5837,342.8047 441.8098,344.5207 444.5898,346.8532 446.9235,349.8047 L 457.8375,336.6267 C 454.1996,332.7829 449.7709,329.7626 444.5545,327.5661 439.3379,325.301 434.0525,324.1677 428.6995,324.1677 Z M 803.32,324.17 C 795.9755,324.17 789.317,325.7838 783.345,329.0098 777.442,332.2359 772.775,336.6626 769.343,342.2908 765.9796,347.9193 764.2981,354.2348 764.2981,361.2358 764.2981,368.3057 765.9797,374.7238 769.343,380.4898 772.775,386.1869 777.4419,390.6818 783.345,393.9758 789.3167,397.2019 795.975,398.8156 803.32,398.8156 810.6645,398.8156 817.288,397.1689 823.191,393.8742 829.1627,390.5795 833.83,386.083 837.193,380.3862 840.625,374.6891 842.3414,368.3062 842.3414,361.2362 842.3414,354.2349 840.625,347.9192 837.193,342.2912 833.8296,336.6627 829.1627,332.2362 823.191,329.0102 817.288,325.7841 810.664,324.1704 803.32,324.1704 Z M 181.65,325.3028 V 397.4788 H 212.023 C 219.7107,397.4788 226.507,395.9677 232.41,392.9476 238.3817,389.9274 242.979,385.6712 246.205,380.1796 249.4997,374.6884 251.1484,368.4076 251.1484,361.3376 251.1484,354.2677 249.5346,348.0216 246.3086,342.5996 243.0825,337.1084 238.5532,332.8541 232.7186,329.8336 226.9528,326.8134 220.2946,325.3024 212.7436,325.3024 Z M 493.27,325.3028 V 367.7228 C 493.27,373.969 494.6087,379.4588 497.2856,384.1958 500.0312,388.8633 503.8748,392.4667 508.8166,395.0068 513.8273,397.5465 519.6276,398.8174 526.2166,398.8174 532.806,398.8174 538.5386,397.5465 543.4116,395.0068 548.3537,392.4671 552.1294,388.8638 554.7376,384.1958 557.4146,379.4596 558.7513,373.9698 558.7513,367.7228 V 325.3028 H 539.9093 V 367.7228 C 539.9093,372.3217 538.6404,375.9928 536.1007,378.7388 533.6297,381.4158 530.3692,382.7544 526.3195,382.7544 522.2011,382.7544 518.8031,381.3828 516.1265,378.6372 513.4495,375.8916 512.1109,372.2534 512.1109,367.7232 V 325.3032 Z M 600.13,325.3028 V 397.4788 H 630.503 C 638.1907,397.4788 644.987,395.9677 650.89,392.9476 656.8617,389.9274 661.459,385.6712 664.685,380.1796 667.9797,374.6884 669.6284,368.4076 669.6284,361.3376 669.6284,354.2677 668.0146,348.0216 664.7886,342.5996 661.5625,337.1084 657.0332,332.8541 651.1986,329.8336 645.4328,326.8134 638.7746,325.3024 631.2236,325.3024 Z M 707.56,325.3028 V 397.4788 H 726.402 V 325.3028 Z M 803.533,340.1288 C 807.1023,340.1288 810.3627,341.05482 813.3142,342.9081 816.3344,344.7614 818.7037,347.336 820.4197,350.6307 822.1357,353.8568 822.9939,357.4253 822.9939,361.3377 822.9939,365.3188 822.13569,368.9571 820.4197,372.2517 818.7037,375.4778 816.3344,378.0524 813.3142,379.9743 810.3627,381.8276 807.1022,382.7536 803.533,382.7536 799.9637,382.7536 796.6703,381.82758 793.6502,379.9743 790.63,378.0524 788.1929,375.4777 786.3397,372.2517 784.5551,368.957 783.662,365.3187 783.662,361.3377 783.662,357.4252 784.5551,353.8567 786.3397,350.6307 788.1243,347.336 790.5266,344.7613 793.5467,342.9081 796.6355,341.0548 799.9637,340.1288 803.533,340.1288 Z M 200.503,340.64442 H 212.343 C 216.1182,340.64442 219.4813,341.53557 222.433,343.32022 225.3845,345.03622 227.6841,347.47332 229.3314,350.63072 231.0474,353.78812 231.9056,357.42642 231.9056,361.54472 231.9056,365.59452 231.11713,369.19782 229.5384,372.35572 227.9597,375.51312 225.7628,377.95032 222.9486,379.66632 220.1344,381.38232 216.9068,382.24052 213.2689,382.24052 H 200.5029 Z M 618.973,340.64442 H 630.813 C 634.5882,340.64442 637.9513,341.53557 640.903,343.32022 643.8545,345.03622 646.1541,347.47332 647.8014,350.63072 649.5174,353.78812 650.3756,357.42642 650.3756,361.54472 650.3756,365.59452 649.58714,369.19782 648.0084,372.35572 646.4297,375.51312 644.2328,377.95032 641.4186,379.66632 638.6044,381.38232 635.3768,382.24052 631.7389,382.24052 H 618.9689 Z"
         style="font-variant-ligatures:none;fill:#000000;stroke-width:0;stroke-miterlimit:2"
         id="path310195" /><path
         style="fill:#000000;stroke-width:0.2731"
         d="M 315.45,339.5 C 307.1198,339.49909 300.23,339.505 300.138,339.5117 300.0461,339.5187 299.87406,339.5373 299.75714,339.5547 299.64022,339.5722 299.47188,339.6031 299.38214,339.6231 299.29254,339.6432 299.14601,339.6812 299.05597,339.7071 298.96607,339.7331 298.79966,339.7884 298.68683,339.83015 298.57417,339.87195 298.36592,339.96373 298.22394,340.03328 298.08197,340.10278 297.89003,340.20621 297.79816,340.26179 297.70626,340.31749 297.56659,340.40917 297.48566,340.46687 297.40486,340.52457 297.26099,340.63448 297.1673,340.71101 297.0736,340.78751 296.91166,340.93586 296.80597,341.04109 296.70044,341.14617 296.56219,341.29405 296.49933,341.36921 296.43633,341.44441 296.33457,341.57476 296.27277,341.65828 296.21087,341.74178 296.10714,341.89472 296.0423,341.99812 295.9776,342.10152 295.87554,342.27864 295.81769,342.39265 295.75979,342.50654 295.67811,342.68499 295.63605,342.78718 295.59415,342.88922 295.53334,343.05788 295.49933,343.16218 295.46533,343.26665 295.41633,343.43322 295.39191,343.53328 295.36741,343.63335 295.33471,343.79813 295.31771,343.90046 295.30071,344.0028 295.27951,344.14951 295.27081,344.22468 295.26181,344.29988 295.25061,344.47353 295.24541,344.6114 295.23641,344.83567 295.24041,344.87509 295.26881,344.98835 295.28641,345.05785 295.32201,345.15386 295.34891,345.20125 295.37581,345.24865 295.43521,345.32486 295.48172,345.37117 295.52802,345.41767 295.60441,345.4771 295.65164,345.50398 295.69874,345.53068 295.79188,345.56748 295.85672,345.58408 L 295.97391,345.61338 H 304.19851 V 362.40238 C 304.19867,373.92538 304.20351,379.24738 304.21411,379.36738 304.22311,379.46348 304.24391,379.63187 304.26101,379.74043 304.27811,379.849 304.31991,380.04464 304.35281,380.17597 304.38561,380.30716 304.44121,380.50268 304.47781,380.60957 304.51441,380.71631 304.57721,380.87707 304.61648,380.96894 304.65568,381.06084 304.72387,381.20931 304.76882,381.29707 304.81362,381.38467 304.89578,381.53333 304.95242,381.62715 305.00902,381.72095 305.10134,381.86057 305.15554,381.93769 305.20994,382.01469 305.31341,382.15231 305.38796,382.24433 305.46236,382.33653 305.63088,382.51883 305.76101,382.64863 305.89114,382.77845 306.07347,382.94428 306.16531,383.01777 306.25721,383.09137 306.43989,383.22552 306.57351,383.31465 306.70728,383.40375 306.93348,383.53533 307.07546,383.60761 307.21743,383.67991 307.41843,383.77305 307.52273,383.81465 307.62719,383.85605 307.78829,383.91415 307.88015,383.94355 307.97205,383.97315 308.115,384.01435 308.19851,384.03535 308.28201,384.05635 308.42696,384.08665 308.51882,384.10375 308.61072,384.12105 308.76998,384.14805 308.87429,384.16235 L 309.06374,384.18775 324.14974,384.19375 C 334.86474,384.19775 339.30574,384.1937 339.47774,384.18205 339.61136,384.17305 339.79248,384.15555 339.88008,384.14295 339.96788,384.13025 340.12511,384.10145 340.22774,384.08045 340.33024,384.05965 340.50571,384.01575 340.61836,383.98275 340.73103,383.94975 340.91596,383.88765 341.03047,383.84408 341.14511,383.80068 341.35174,383.70944 341.48946,383.64096 341.62733,383.57246 341.82653,383.46241 341.93086,383.39682 342.03532,383.33122 342.18915,383.22635 342.27266,383.1644 342.35616,383.1026 342.4846,383.00084 342.55977,382.93783 342.63497,382.87493 342.78804,382.73378 342.89766,382.62338 343.00729,382.513 343.16451,382.33766 343.24727,382.23471 343.32987,382.13191 343.44231,381.98194 343.49727,381.90268 343.55227,381.82328 343.63856,381.69127 343.68867,381.60775 343.73877,381.52425 343.82065,381.3707 343.87227,381.26791 343.92377,381.16496 343.99924,381.00063 344.04024,380.90072 344.08124,380.80102 344.14294,380.63395 344.17696,380.52963 344.21096,380.42516 344.25996,380.25664 344.28438,380.15658 344.30888,380.05651 344.34158,379.89172 344.35858,379.7894 344.37558,379.68705 344.39678,379.5423 344.40548,379.46713 344.41348,379.39193 344.42578,379.21617 344.43088,379.07846 344.43888,378.85419 344.43588,378.8148 344.40748,378.70151 344.38988,378.63201 344.35428,378.53795 344.32738,378.49057 344.30048,378.44317 344.24098,378.365 344.19456,378.31869 344.14826,378.27219 344.07186,378.21276 344.02464,378.18588 343.97754,378.15918 343.8844,378.12428 343.81956,378.10778 L 343.70238,378.07658 H 335.47968 L 335.47568,361.18758 335.47168,344.30058 335.44438,344.1248 C 335.42978,344.0287 335.40478,343.87844 335.38778,343.79082 335.37058,343.70302 335.33838,343.56378 335.31748,343.48027 335.29658,343.39677 335.24658,343.22825 335.20615,343.10722 335.16575,342.98605 335.09517,342.79781 335.04795,342.68926 335.00075,342.58069 334.92269,342.4214 334.87607,342.33379 334.82947,342.24599 334.74077,342.09175 334.67881,341.99199 334.61691,341.89209 334.49909,341.72195 334.41709,341.61308 334.33509,341.50406 334.20131,341.33986 334.11826,341.24785 334.03516,341.15585 333.891,341.01061 333.7999,340.92558 333.7086,340.84038 333.57073,340.71757 333.49131,340.6541 333.41201,340.5906 333.23997,340.46886 333.11045,340.38262 332.98108,340.29632 332.80724,340.18913 332.72373,340.14433 332.64023,340.09973 332.48997,340.02539 332.38975,339.97832 332.28954,339.93122 332.11926,339.85944 332.01084,339.82012 331.90243,339.78092 331.73034,339.72592 331.62998,339.69707 331.52961,339.66827 331.34881,339.62357 331.22764,339.59937 331.10662,339.57507 330.91663,339.54417 330.80381,339.52907 L 330.59873,339.50177 Z M 326.354,341.1348 326.3267,341.1699 C 326.3115,341.1899 326.25,341.261 326.18998,341.32811 326.13018,341.39521 326.02276,341.52844 325.9517,341.62303 325.8806,341.71763 325.76731,341.88226 325.69974,341.99022 325.63214,342.09803 325.52671,342.28641 325.46537,342.40819 325.40397,342.52996 325.31992,342.71584 325.27787,342.8203 325.23597,342.92461 325.17321,343.09846 325.1392,343.20701 325.1052,343.31558 325.0601,343.47667 325.0396,343.56444 325.0191,343.65204 324.9943,343.76789 324.9849,343.82225 324.9759,343.87645 324.9658,343.93267 324.9615,343.94725 L 324.9535,343.97455 H 296.9695 L 296.9755,343.94725 C 296.9795,343.93265 297.0016,343.85455 297.0243,343.77537 297.0469,343.69597 297.089,343.5748 297.1161,343.50389 297.1431,343.43279 297.1943,343.30971 297.23133,343.23045 297.26833,343.15105 297.34744,343.00463 297.40711,342.90623 297.46681,342.80783 297.5693,342.65997 297.63368,342.57616 297.69788,342.49216 297.81583,342.35497 297.89539,342.27147 297.97499,342.18777 298.10459,342.06468 298.18446,341.99803 298.26436,341.93133 298.39783,341.83021 298.48133,341.77342 298.56483,341.71682 298.69524,341.63594 298.77039,341.59373 298.84559,341.55153 298.97001,341.48922 299.04774,341.45506 299.12544,341.42086 299.25822,341.36716 299.34266,341.33787 299.42706,341.30847 299.56146,341.26827 299.64149,341.24807 299.72149,341.22807 299.8507,341.20097 299.9286,341.18757 300.0065,341.17407 300.13317,341.15727 300.20985,341.15047 300.28635,341.14347 306.20085,341.13777 313.35285,341.13677 Z M 330.2622,341.1428 C 330.41252,341.1468 330.604,341.1598 330.68798,341.1721 330.77178,341.1843 330.90334,341.2079 330.98095,341.2248 331.05855,341.2418 331.22334,341.2886 331.34814,341.33027 331.4728,341.37207 331.66532,341.4502 331.77587,341.5041 331.8864,341.558 332.03861,341.64212 332.11377,341.68965 332.18897,341.73735 332.31487,341.82425 332.39306,341.88301 332.47106,341.94181 332.61706,342.06768 332.71728,342.16426 332.8175,342.26086 332.95455,342.40855 333.02197,342.49238 333.08937,342.57608 333.19263,342.71711 333.25048,342.80488 333.30848,342.89248 333.40624,343.06633 333.46728,343.1916 333.52848,343.31687 333.60309,343.49055 333.6333,343.57832 333.6635,343.66592 333.7045,343.8036 333.7251,343.88301 333.7457,343.96231 333.7789,344.10897 333.7974,344.20918 L 333.8306,344.39082 333.8386,361.84582 C 333.8456,375.52182 333.8513,379.33082 333.866,379.44382 333.8762,379.52312 333.8979,379.66978 333.9148,379.76999 333.9317,379.87021 333.965,380.03487 333.989,380.13523 334.0128,380.23545 334.0576,380.39669 334.0886,380.49265 334.1194,380.58845 334.1778,380.75146 334.21946,380.85593 334.26086,380.96024 334.35229,381.15932 334.42259,381.29734 334.49279,381.43537 334.61763,381.65075 334.69993,381.77585 334.78213,381.90097 334.89702,382.06399 334.95579,382.13914 335.01439,382.21434 335.11973,382.33919 335.18821,382.41648 L 335.31126,382.5571 H 322.33426 C 313.63566,382.5571 309.29926,382.5521 309.18826,382.5415 309.09636,382.5335 308.95502,382.5156 308.87576,382.5024 308.79646,382.489 308.66791,382.4604 308.58865,382.4399 308.50935,382.4194 308.38256,382.3814 308.3074,382.3559 308.2322,382.3302 308.08569,382.2703 307.98123,382.22309 307.87691,382.17569 307.71642,382.09355 307.62576,382.0395 307.53506,381.9856 307.38857,381.8871 307.29959,381.82075 307.21059,381.75435 307.04225,381.60413 306.92459,381.48676 306.80676,381.36939 306.67206,381.22537 306.62576,381.16645 306.57946,381.10735 306.49268,380.98427 306.4324,380.89301 306.3721,380.80161 306.27244,380.62688 306.2117,380.50434 306.1469,380.37345 306.06976,380.18368 306.0242,380.04535 305.9817,379.91583 305.9295,379.72611 305.90897,379.62348 305.88847,379.52068 305.86507,379.37059 305.85627,379.2895 305.84517,379.187 305.84067,374.0276 305.84067,362.3775 V 345.6155 H 315.81137 C 324.31257,345.61535 325.80007,345.6125 325.88537,345.594 325.94067,345.5823 326.02815,345.5521 326.08068,345.5256 326.13318,345.4992 326.21436,345.4417 326.26037,345.39865 326.30627,345.35565 326.3688,345.28018 326.40099,345.23068 326.43319,345.18118 326.47439,345.09648 326.49089,345.04318 326.51259,344.97288 326.52459,344.86618 326.53579,344.65451 326.54379,344.49417 326.56009,344.29821 326.57289,344.21896 326.58579,344.13956 326.62189,343.98306 326.65099,343.87131 326.68029,343.75941 326.72839,343.60187 326.75842,343.5217 326.78852,343.4414 326.84522,343.30834 326.88537,343.22482 326.92527,343.14132 327.0005,343.0001 327.05334,342.91232 327.10614,342.82452 327.19875,342.68885 327.25842,342.60959 327.31812,342.53029 327.41941,342.409 327.48303,342.34006 327.54653,342.27116 327.65433,342.16344 327.72326,342.09982 327.79216,342.03622 327.90048,341.94468 327.96349,341.8967 328.02649,341.8486 328.13507,341.77083 328.20568,341.72482 328.27628,341.67902 328.39986,341.60688 328.47912,341.56467 328.55852,341.52247 328.68149,341.46207 328.75256,341.43185 328.82366,341.40145 328.94302,341.35715 329.01818,341.33225 329.09338,341.30715 329.21646,341.27195 329.29162,341.25215 329.36682,341.23255 329.49717,341.20345 329.58068,341.18965 329.66418,341.17585 329.78891,341.15985 329.85998,341.15255 329.93108,341.14555 330.112,341.14115 330.26232,341.14455 Z M 319.8282,349.9748 C 310.9783,349.9758 309.0822,349.9798 309.0212,349.9963 308.9811,350.0074 308.90856,350.0338 308.86104,350.0568 308.80914,350.0822 308.73072,350.1425 308.66573,350.20719 308.59863,350.27399 308.54119,350.35141 308.51143,350.41032 308.48513,350.46242 308.45343,350.54754 308.44113,350.59977 308.42863,350.65197 308.41773,350.73521 308.41773,350.78532 308.41773,350.83542 308.42863,350.91863 308.44113,350.97087 308.45343,351.02307 308.48363,351.109 308.50953,351.16032 308.53533,351.21162 308.59333,351.29009 308.63648,351.3361 308.67948,351.3819 308.75465,351.44619 308.80445,351.47868 308.85425,351.51108 308.94295,351.55398 309.00172,351.57238 L 309.10914,351.60558 H 330.56414 L 330.67156,351.57238 C 330.73036,351.55398 330.82007,351.51138 330.87078,351.47868 330.92138,351.44608 330.99417,351.38628 331.03289,351.34587 331.07159,351.30537 331.12689,351.2273 331.15593,351.17204 331.18503,351.11664 331.21953,351.02822 331.23213,350.97477 331.24473,350.92137 331.25553,350.83542 331.25553,350.78532 331.25553,350.73522 331.24473,350.65127 331.23213,350.59782 331.21953,350.54442 331.18403,350.45389 331.15403,350.39665 331.11803,350.32815 331.06553,350.25941 330.99778,350.19548 330.94148,350.14238 330.85629,350.08138 330.81028,350.05876 330.76428,350.03626 330.69101,350.00626 330.64622,349.99426 330.57592,349.97556 329.08972,349.97366 319.83022,349.97476 Z M 319.8751,357.342 C 310.9072,357.34 309.1391,357.34245 309.0611,357.3596 309.009,357.3708 308.91675,357.4078 308.85602,357.4397 308.79422,357.4722 308.70763,357.5334 308.66071,357.58032 308.61451,357.62652 308.55909,357.69663 308.53571,357.73657 308.51231,357.77647 308.47981,357.84905 308.46341,357.89673 308.44691,357.94423 308.42931,358.03577 308.42431,358.09985 308.41931,358.16905 308.42131,358.25595 308.43231,358.31274 308.44261,358.36554 308.47661,358.45902 308.50651,358.52173 308.54541,358.60323 308.58921,358.66355 308.66081,358.73462 308.71591,358.78912 308.80136,358.85634 308.85222,358.88306 308.90312,358.90976 308.99017,358.94076 309.04362,358.95336 309.13002,358.97376 310.34872,358.97676 319.83662,358.97676 329.21502,358.97676 330.54662,358.97276 330.62962,358.95336 330.68182,358.94106 330.76699,358.90936 330.81907,358.88306 330.87537,358.85466 330.95472,358.79646 331.01439,358.73657 331.08549,358.66537 331.13027,358.60236 331.16868,358.52173 331.19858,358.45903 331.23068,358.36363 331.24098,358.31079 331.25188,358.25399 331.25648,358.16909 331.25098,358.09985 331.24598,358.03575 331.22878,357.94171 331.21188,357.89282 331.19498,357.84392 331.16588,357.78076 331.14748,357.75024 331.12908,357.71974 331.08618,357.66274 331.05378,357.62329 331.02138,357.58399 330.9495,357.51972 330.89362,357.48266 330.83792,357.44546 330.74861,357.40066 330.6944,357.3811 L 330.5948,357.346 Z M 319.8282,364.719 C 310.6358,364.71982 309.1122,364.722 309.0352,364.7405 308.9863,364.7523 308.90489,364.7839 308.85356,364.8108 308.80236,364.8377 308.71532,364.9048 308.6602,364.95924 308.5885,365.03034 308.54477,365.0906 308.5059,365.17213 308.476,365.23473 308.442,365.33023 308.4317,365.38307 308.4208,365.43987 308.4182,365.52477 308.4237,365.594 308.4287,365.6581 308.4463,365.7496 308.4628,365.79713 308.4792,365.84483 308.5117,365.91734 308.5351,365.95728 308.5585,365.99718 308.6159,366.06737 308.66205,366.11353 308.70885,366.16033 308.79407,366.22197 308.85541,366.25416 308.91581,366.28586 309.01197,366.32246 309.0683,366.33426 309.1568,366.35306 310.6394,366.35576 319.8383,366.35576 329.0367,366.35576 330.5193,366.35276 330.6083,366.33426 330.6646,366.32246 330.7588,366.28586 330.81923,366.25416 330.88063,366.22196 330.96779,366.16026 331.01455,366.11353 331.06075,366.06733 331.11616,365.99721 331.13955,365.95728 331.16295,365.91738 331.19545,365.8448 331.21185,365.79713 331.22835,365.74963 331.24595,365.65808 331.25095,365.594 331.25595,365.5248 331.25395,365.43986 331.24295,365.38307 331.23265,365.33027 331.19865,365.23469 331.16875,365.17213 331.13035,365.09153 331.08545,365.0285 331.01446,364.95728 330.95476,364.89748 330.87547,364.83919 330.81914,364.8108 330.76704,364.7845 330.68192,364.7528 330.62969,364.7405 330.54629,364.7208 329.21829,364.7181 319.83069,364.719 Z M 323.2755,372.0862 C 319.2585,372.0852 315.9275,372.0912 315.8732,372.0979 315.819,372.1039 315.73919,372.1221 315.69547,372.1389 315.65157,372.1556 315.58646,372.1862 315.55094,372.2073 315.51524,372.2282 315.45534,372.2769 315.41617,372.31473 315.37697,372.35243 315.31897,372.42033 315.28922,372.46512 315.25942,372.50992 315.21992,372.58719 315.20132,372.63699 315.17342,372.71219 315.16962,372.75695 315.17012,372.90848 315.17042,373.0582 315.17512,373.10705 315.20332,373.18191 315.22182,373.23201 315.26182,373.30945 315.29122,373.35379 315.32072,373.39829 315.37392,373.46355 315.41036,373.49832 315.44686,373.53322 315.51578,373.58532 315.5627,373.61355 315.6096,373.64195 315.69237,373.67815 315.74825,373.69365 L 315.84981,373.72105 H 323.20721 C 328.20181,373.72078 330.58681,373.71605 330.63301,373.70545 330.67041,373.69645 330.74408,373.66825 330.79707,373.64295 330.85357,373.61605 330.93586,373.55745 330.99629,373.50037 331.06479,373.43587 331.11835,373.36799 331.15449,373.2992 331.18459,373.242 331.21999,373.15148 331.23259,373.09803 331.24519,373.04463 331.25399,372.9612 331.25409,372.91444 331.25409,372.86754 331.24809,372.79337 331.24039,372.74842 331.23239,372.70332 331.19699,372.61211 331.16419,372.54529 331.12489,372.46509 331.07539,372.39236 331.0177,372.33436 330.9697,372.28596 330.88857,372.22378 330.83801,372.19569 330.78731,372.16759 330.70824,372.13289 330.66223,372.11759 L 330.58023,372.08829 Z M 335.5825,379.7171 H 342.7037 L 342.6666,379.84991 C 342.6466,379.92291 342.6058,380.05377 342.5748,380.14093 342.5438,380.22793 342.46907,380.40002 342.40879,380.52179 342.34849,380.64341 342.24853,380.81904 342.18613,380.91241 342.12353,381.00561 342.02803,381.13603 341.97519,381.20148 341.92219,381.26678 341.8074,381.3906 341.71933,381.47882 341.63123,381.56702 341.49406,381.69118 341.41465,381.75421 341.33535,381.81721 341.21954,381.90206 341.15683,381.94366 341.09423,381.98526 340.98703,382.05189 340.91855,382.09015 340.85025,382.12845 340.72755,382.19101 340.64511,382.22882 340.56271,382.26662 340.41642,382.32282 340.3209,382.35577 340.2254,382.38857 340.07292,382.43367 339.98105,382.45537 339.88915,382.47687 339.7407,382.50517 339.65293,382.51787 339.56533,382.53067 339.39875,382.54557 339.28183,382.55107 339.15444,382.55707 338.98345,382.55407 338.85605,382.54307 338.73913,382.53307 338.54231,382.50517 338.41855,382.48057 338.29464,382.45587 338.10167,382.40297 337.98887,382.36534 337.87605,382.32754 337.69181,382.25442 337.58066,382.20128 337.46937,382.14828 337.31496,382.06581 337.23691,382.01768 337.15901,381.96968 337.0328,381.88457 336.95761,381.82823 336.88241,381.77193 336.76305,381.6728 336.69199,381.60948 336.62109,381.54598 336.50969,381.43477 336.44394,381.36143 336.37824,381.28823 336.2852,381.17654 336.23691,381.11338 336.18881,381.05038 336.11224,380.94181 336.06699,380.8712 336.02159,380.8007 335.95291,380.68429 335.91465,380.61338 335.87625,380.54248 335.81259,380.40941 335.77402,380.31846 335.73542,380.22766 335.68282,380.07741 335.65488,379.98448 335.62698,379.89168 335.59828,379.79291 335.59238,379.76573 Z"
         id="icon" /></g></g></svg>
